<svg xmlns="http://www.w3.org/2000/svg" viewBox="0 0 432.7 519.91"><defs><style>.cls-1{fill:#465366;}</style></defs><title>Asset 4</title><g id="Layer_2" data-name="Layer 2"><g id="Layer_1-2" data-name="Layer 1"><path class="cls-1" d="M216.35,284.12c34.76,0,116.49-41.83,116.49-142.07,0-14-.35-27.49-1.49-40.25-1.89-25.11-7-47.37-19.84-64.43C295.07,14.18,266.33,0,216.35,0s-78.71,14.17-95.13,37.37c-12.81,17.07-18,39.33-19.85,64.45-1.15,12.76-1.49,26.27-1.49,40.25,0,100.23,81.73,142.06,116.48,142.06ZM254.37,52l-8.48,21.44c-21.91-6.19-37.16-6.19-59.07,0-3.39-8.58-5.09-12.86-8.49-21.44,27.41-8.29,48.65-8.29,76,0ZM117.19,120.33c1.34,2.93,7,14.23,15.87,15.28,10.14,1.22,27-35.93,83.28-36,56.3.09,73.14,37.23,83.29,36,8.82-1.06,14.53-12.35,15.87-15.28.27,7.2.37,14.48.37,21.74,0,49-21.63,79.35-39.78,96.19-22.87,21.22-48.26,28.91-59.74,28.91s-36.88-7.7-59.74-28.91c-18.15-16.84-39.78-47.2-39.78-96.19,0-7.26.1-14.54.37-21.74Zm0,0"/><path class="cls-1" d="M432.59,429.82c-5.95-37-18.19-84.6-42.74-101.53-16.77-11.57-75.27-42.82-100.26-56.17l-.42-.23a8.16,8.16,0,0,0-8.88.77,106.12,106.12,0,0,1-42.61,20.58,8.15,8.15,0,0,0-5.85,5.07l-15.47,40.76-15.46-40.76a8.15,8.15,0,0,0-5.86-5.07,106.11,106.11,0,0,1-42.6-20.58,8.17,8.17,0,0,0-8.89-.77C118.84,285.09,59.62,317,42.92,328.24c-28.27,19-40.63,88-42.81,101.58a8.24,8.24,0,0,0,.36,4c.61,1.69,10,25.9,56.71,45.38a23.2,23.2,0,0,1,10.32-7.42A23,23,0,0,1,54.93,439a68.33,68.33,0,0,1,116.79-5.3h89.22a68.48,68.48,0,0,1,56.72-30.34h0a68.46,68.46,0,0,1,60,35.44,23.05,23.05,0,0,1-12.48,32.83,23.22,23.22,0,0,1,10.48,7.53c46.63-19.46,56-43.63,56.57-45.32a8.27,8.27,0,0,0,.36-4Zm0,0"/><path class="cls-1" d="M357.52,490.49h0l-43,.06c-.77-1.81-2.23-6.83-2.24-18.82s1.43-17,2.19-18.84l43-.06a2.9,2.9,0,0,0,2.54-4.3,48.19,48.19,0,0,0-87,5.35H159.65a48.15,48.15,0,0,0-87-5.2A2.9,2.9,0,0,0,75.17,453l43-.07c.77,1.81,2.22,6.84,2.24,18.83s-1.43,17-2.19,18.83l-43,.06a2.9,2.9,0,0,0-2.54,4.3,48.21,48.21,0,0,0,42.24,25H115a48.18,48.18,0,0,0,44.69-30.34H273a48.25,48.25,0,0,0,44.72,30.33h.07a48.22,48.22,0,0,0,42.24-25.12,2.9,2.9,0,0,0-2.55-4.29Zm0,0"/></g></g></svg>