<svg xmlns="http://www.w3.org/2000/svg" viewBox="0 0 439.54 465"><defs><style>.cls-1{fill:#465366;}</style></defs><title>Asset 9</title><g id="Layer_2" data-name="Layer 2"><g id="Layer_1-2" data-name="Layer 1"><path class="cls-1" d="M399.25,168.31A179.29,179.29,0,0,0,219.77,0,179.29,179.29,0,0,0,40.29,168.31a99.86,99.86,0,0,0,59.6,180,20,20,0,0,0,20-20V168.51a20,20,0,0,0-20-20A100.22,100.22,0,0,0,83,150a140,140,0,0,1,273.49,0,100.22,100.22,0,0,0-16.87-1.45,20,20,0,0,0-20,20V328.34a20,20,0,0,0,20,20,100,100,0,0,0,20-2v47.27a18.17,18.17,0,0,1-18.15,18.15H307A20,20,0,0,0,288.2,398.4H219.77a20,20,0,0,0-20,20V445a20,20,0,0,0,20,20H288.2A20,20,0,0,0,307,451.68h34.46a58.17,58.17,0,0,0,58.11-58.11V328.29a99.79,99.79,0,0,0-.34-160Z"/></g></g></svg>