<svg xmlns="http://www.w3.org/2000/svg" viewBox="0 0 448.82 448.86"><defs><style>.cls-1{fill:#465366;}</style></defs><title>Asset 8</title><g id="Layer_2" data-name="Layer 2"><g id="Layer_1-2" data-name="Layer 1"><path class="cls-1" d="M290.19,53.48c0-29-23.59-53.48-52.6-53.48s-53.48,24.47-53.48,53.48S208.57,107,237.58,107,290.19,82.49,290.19,53.48Z"/><path class="cls-1" d="M157.81,159.56v13.15A13.14,13.14,0,0,0,171,185.86H303.34a13.14,13.14,0,0,0,13.15-13.15V159.56A78.3,78.3,0,0,0,296,107a78.42,78.42,0,0,1-58.38,26.3A80.34,80.34,0,0,1,178.33,107,78.3,78.3,0,0,0,157.81,159.56Z"/><path class="cls-1" d="M60,269.27a26.3,26.3,0,0,0-35.21-11.83L7.31,266.12a13.16,13.16,0,0,0-5.92,17.67l78.9,157.8A13.16,13.16,0,0,0,97.9,447.5l17.29-8.57A26.3,26.3,0,0,0,127,403.63Z"/><path class="cls-1" d="M438.08,217.15a26.22,26.22,0,0,0-34.72,3.42l-71.89,88.37c-5,5.26-14.47,8.42-19.46,8.42H250.73a13.15,13.15,0,1,1,0-26.3h52.6a26.3,26.3,0,0,0,0-52.6H234.43c-6.55,0-9.82-4.16-15-8.68-20.35-18.31-50.8-27.13-81.64-20-17.12,4-28.66,10.88-40.37,20.16l-.39-.32L78,246.37l74.75,149.89H303.34a79.22,79.22,0,0,0,63.12-31.56L443.6,254.24A26.5,26.5,0,0,0,438.08,217.15Z"/></g></g></svg>